<?xml version="1.0" encoding="UTF-8"?>
<svg version="1.1" xmlns="http://www.w3.org/2000/svg" width="414" height="382">
<path d="M0 0 C4.24600616 4.48409997 7.10174151 9.00124364 9.4765625 14.6953125 C13.12411731 21.03745735 19.62819659 22.52511265 26.15234375 24.70703125 C45.93722196 31.64789717 61.21447142 42.12776706 76.2890625 56.53613281 C77.28405035 57.486072 78.28410638 58.43072991 79.2890625 59.37011719 C87.59165811 67.14446282 94.3795449 75.56317665 100.77734375 84.95703125 C101.36257813 85.79621094 101.9478125 86.63539062 102.55078125 87.5 C105.89232944 92.63608333 108.13157626 98.08130229 110.33984375 103.76953125 C110.64374023 104.5483667 110.94763672 105.32720215 111.26074219 106.12963867 C112.60717233 109.64658175 113.81312645 113.08832519 114.8046875 116.7265625 C116.27823221 121.80999586 117.51397797 125.44412227 122.140625 128.25 C124.74789246 129.64692671 127.41471913 130.89298835 130.09765625 132.13671875 C137.61067061 135.66665505 142.03854018 141.28091114 145.0859375 148.87890625 C148.01790557 157.69137525 147.61304652 166.48513121 143.77734375 174.95703125 C138.40465926 185.0824751 128.40826578 191.41339057 117.77734375 194.95703125 C116.91742592 197.48816749 116.2284632 199.93210881 115.58984375 202.51953125 C109.35444676 225.47558649 94.84118189 244.82887101 78.77734375 261.95703125 C78.05587158 262.72950195 78.05587158 262.72950195 77.31982422 263.51757812 C69.77321093 271.53362079 62.16318615 278.1144832 52.77734375 283.95703125 C51.67777344 284.65570313 50.57820312 285.354375 49.4453125 286.07421875 C41.18180038 291.07954609 32.77196275 294.28705246 23.62890625 297.32958984 C15.96608701 299.92629942 11.29705058 302.01718047 7.4921875 309.4765625 C2.26413408 319.6677813 -4.35428282 325.94766178 -15.22265625 329.95703125 C-23.43158768 332.08819614 -32.0847717 330.77542788 -39.515625 326.69921875 C-47.05592141 321.36121394 -52.29878767 314.72466082 -55.88671875 306.25390625 C-59.26328166 300.44858757 -64.48394497 298.98892755 -70.53515625 297.20703125 C-91.79314714 290.45784584 -108.29784527 278.33870407 -124.22265625 262.95703125 C-125.22891437 262.01405362 -126.23542846 261.07134906 -127.2421875 260.12890625 C-144.60894099 243.61379163 -156.02270906 223.58664425 -162.78515625 200.70703125 C-164.79023039 194.71446505 -169.27615912 192.91773315 -174.59765625 190.08203125 C-182.97997191 185.56414337 -188.46099584 180.89486074 -192.22265625 171.95703125 C-194.91393292 161.56665931 -193.63958124 152.15811733 -188.53515625 142.89453125 C-183.04389596 135.91914656 -176.94210838 132.00523853 -168.859375 128.4140625 C-164.75518111 126.14611536 -163.59251759 124.0362157 -162.08203125 119.62890625 C-161.70757977 118.32294168 -161.33805764 117.01555683 -160.97265625 115.70703125 C-157.23313325 103.09539198 -151.80619464 91.33955917 -145.22265625 79.95703125 C-144.56265625 79.95703125 -143.90265625 79.95703125 -143.22265625 79.95703125 C-142.94421875 78.96703125 -142.94421875 78.96703125 -142.66015625 77.95703125 C-140.95896257 74.406714 -138.77223625 71.95274629 -136.1328125 69.05859375 C-134.92220636 67.72667943 -133.7384269 66.36945319 -132.59375 64.98046875 C-128.55408698 60.09393662 -124.05832002 56.17221462 -119.09375 52.23828125 C-117.24701045 50.7709399 -115.42406399 49.27286774 -113.6328125 47.73828125 C-100.38499427 36.42285154 -86.21745159 29.32230547 -70.07470703 23.06713867 C-68.86024902 22.58994385 -67.64579102 22.11274902 -66.39453125 21.62109375 C-65.30237305 21.2029541 -64.21021484 20.78481445 -63.08496094 20.35400391 C-57.86312251 17.80544032 -55.67296588 14.23515232 -53.03515625 9.20703125 C-47.88693415 0.20587534 -41.14247985 -5.8222468 -31.22265625 -9.04296875 C-19.70832688 -12.08448972 -8.49948459 -7.81235578 0 0 Z " fill="#FCFCFC" transform="translate(218.22265625,29.04296875)"/>
<path d="M0 0 C5.80279028 3.36411764 10.56261804 7.82740146 13 14.11328125 C14.572872 20.32479269 14.94078006 27.11461712 12.1875 32.98828125 C9.8605016 38.39965018 11.56054522 43.5082731 12.8125 49.05078125 C13.2146875 50.97277344 13.2146875 50.97277344 13.625 52.93359375 C14.33452696 56.3106692 15.06497782 59.68194795 15.8125 63.05078125 C16.40546875 62.29023437 16.9984375 61.5296875 17.609375 60.74609375 C23.02417842 54.12160021 28.78465353 49.78389771 37.4140625 48.734375 C45.06584346 48.40028316 51.94241411 49.75647085 57.88671875 54.81640625 C63.43501291 60.72528138 65.89032567 66.41808844 66.25 74.48828125 C65.99953464 82.36160536 62.8538995 88.79427564 57.60546875 94.609375 C54.42322886 97.16764628 50.73825031 98.13477284 46.8125 99.05078125 C46.8125 99.71078125 46.8125 100.37078125 46.8125 101.05078125 C47.45574219 101.08816406 48.09898437 101.12554687 48.76171875 101.1640625 C55.33471469 101.64226905 61.48511669 102.7910477 67.8671875 104.4296875 C72.66584933 105.4416069 75.62840512 105.41013358 79.9375 103.05078125 C86.40801738 100.02546447 93.20080252 99.98019969 100 102.11328125 C106.17557321 104.83966367 111.20957591 109.21817149 114.3125 115.23828125 C117.01090168 122.30953923 117.01245606 129.9251735 114.125 136.92578125 C109.8596558 145.14437129 104.52772391 149.14570661 95.8125 152.05078125 C94.10630686 152.14588054 92.39633445 152.18064972 90.6875 152.17578125 C89.6975 152.17320312 88.7075 152.170625 87.6875 152.16796875 C85.24587422 152.06844596 83.07616509 151.75798668 80.6875 151.30078125 C75.22365624 150.55571165 70.08818186 152.18683774 64.83935547 153.57714844 C61.07500883 154.57007553 57.71461164 155.30426488 53.8125 155.05078125 C56.04525395 157.36941035 58.22915099 159.36326949 60.8125 161.30078125 C65.18879112 164.86828945 67.06519195 169.80885709 68.8125 175.05078125 C69.71978554 184.12363665 67.97026806 191.03071438 62.5625 198.36328125 C56.37744017 204.40777154 49.22780713 206.42183139 40.73046875 206.33203125 C33.64277343 205.64887989 27.71535557 202.06765672 22.8125 197.05078125 C18.8125 190.58349153 18.8125 190.58349153 18.8125 187.05078125 C18.1525 187.05078125 17.4925 187.05078125 16.8125 187.05078125 C16.709375 188.26765625 16.60625 189.48453125 16.5 190.73828125 C16.06185377 194.81690719 15.22615507 198.69288439 14.25 202.67578125 C12.91151282 208.31186207 11.77745692 213.20441277 13.8125 218.80078125 C16.08119325 226.17403431 15.51499903 233.1998685 12.00390625 240.05078125 C7.75019045 247.19144514 2.59135029 250.45783115 -5.1875 253.05078125 C-14.2603554 253.95806679 -21.16743313 252.20854931 -28.5 246.80078125 C-33.62706474 241.55448245 -36.32325586 235.20060038 -36.375 227.86328125 C-36.38917969 226.96222656 -36.40335937 226.06117188 -36.41796875 225.1328125 C-36.1875 222.05078125 -36.1875 222.05078125 -35.03125 218.46484375 C-33.49475461 212.70007731 -35.17342573 207.29129195 -36.5 201.61328125 C-36.73912109 200.51306641 -36.97824219 199.41285156 -37.22460938 198.27929688 C-37.93736784 193.29587389 -37.93736784 193.29587389 -40.1875 189.05078125 C-40.703125 190.24703125 -41.21875 191.44328125 -41.75 192.67578125 C-44.69819179 198.52044217 -48.95386392 202.28954814 -54.9375 204.92578125 C-61.61906759 207.08404389 -68.5006448 207.0549334 -75 204.36328125 C-83.268054 200.12590358 -87.2733898 194.79311186 -90.1875 186.05078125 C-90.9607184 178.43267867 -90.22923721 171.6635124 -86.1875 165.05078125 C-82.72322668 161.15347377 -79.42977486 157.99860327 -74.1875 157.05078125 C-74.1875 156.39078125 -74.1875 155.73078125 -74.1875 155.05078125 C-75.486875 154.92703125 -76.78625 154.80328125 -78.125 154.67578125 C-81.44756497 154.3153143 -84.62586518 153.76741052 -87.875 152.98828125 C-93.4610965 151.72441486 -97.16677789 151.45127924 -102.375 154.05078125 C-108.3860052 156.87948958 -114.28974437 157.19502034 -120.67578125 155.3203125 C-128.11205481 152.2583175 -133.02291629 148.29802187 -136.42578125 140.91796875 C-139.23643066 134.0282743 -139.12685353 126.81795242 -136.6875 119.80078125 C-133.76467274 113.32733636 -128.83591414 108.97890231 -122.375 106.11328125 C-116.6069329 104.2478151 -109.92459425 104.1384165 -104.1875 106.05078125 C-98.902898 106.33641348 -94.16784626 105.56240936 -89.06640625 104.30078125 C-88.32164536 104.12321289 -87.57688446 103.94564453 -86.80955505 103.76269531 C-84.454527 103.19942513 -82.10230581 102.625302 -79.75 102.05078125 C-78.14405389 101.66464151 -76.53793547 101.27921769 -74.93164062 100.89453125 C-71.01488626 99.95487971 -67.10060959 99.00549239 -63.1875 98.05078125 C-64.00734375 97.79393555 -64.8271875 97.53708984 -65.671875 97.27246094 C-66.74953125 96.92602539 -67.8271875 96.57958984 -68.9375 96.22265625 C-70.00484375 95.88331055 -71.0721875 95.54396484 -72.171875 95.19433594 C-78.94498953 92.62590423 -82.52109069 88.36325742 -85.4609375 81.8828125 C-88.20147475 74.97253309 -88.1287381 67.82337366 -85.6875 60.80078125 C-82.75331748 54.27922363 -77.95155997 50.69858623 -71.9375 47.11328125 C-63.91917397 44.84142221 -56.08486034 45.21097322 -48.45703125 48.63671875 C-44.59379286 51.04376229 -41.67116828 54.25126223 -39.1875 58.05078125 C-39.1875 58.71078125 -39.1875 59.37078125 -39.1875 60.05078125 C-38.5275 60.05078125 -37.8675 60.05078125 -37.1875 60.05078125 C-37.13851562 59.49390625 -37.08953125 58.93703125 -37.0390625 58.36328125 C-36.65393534 54.43232813 -36.16555098 50.67863485 -35.125 46.86328125 C-33.82571209 41.57951042 -33.58691512 38.5021947 -35.6875 33.42578125 C-38.15267898 27.21542651 -38.32185082 20.64037141 -36.30859375 14.26953125 C-33.05123571 7.13129449 -28.66265155 3.09498804 -22 -0.82421875 C-14.79410006 -2.95054988 -6.96726911 -3.06269538 0 0 Z " fill="#000000" transform="translate(206.1875,60.94921875)"/>
<path d="M0 0 C6.71279596 5.71878579 12.3949986 12.87001304 14.03125 21.73046875 C14.70933638 33.54481984 14.60327346 44.28628375 6.7578125 53.8515625 C-1.00611037 62.30053739 -9.39151795 67.4807307 -21.03125 67.98046875 C-32.21342475 67.83112418 -41.96157469 63.95011233 -50.265625 56.5625 C-58.52942587 47.67322797 -60.56750781 37.50504661 -60.2890625 25.6875 C-59.86138553 20.40412473 -58.51737544 16.34100297 -55.96875 11.73046875 C-55.1025 10.15265625 -55.1025 10.15265625 -54.21875 8.54296875 C-40.95596363 -8.03551422 -17.77777036 -13.04347282 0 0 Z " fill="#FCFBFA" transform="translate(217.96875,159.26953125)"/>
<path d="M0 0 C8.268054 4.23737767 12.2733898 9.57016939 15.1875 18.3125 C16.09478554 27.3853554 14.34526806 34.29243313 8.9375 41.625 C3.69941659 46.74403606 -2.67575588 49.43853536 -10 49.5625 C-17.85746597 49.45897607 -23.45114371 47.37966328 -29.2734375 42.0625 C-34.54808344 36.06493305 -36.17611699 29.02444516 -36.09375 21.23046875 C-35.41059864 14.14277343 -31.82937547 8.21535557 -26.8125 3.3125 C-18.48265804 -1.78340332 -9.314411 -3.92185726 0 0 Z " fill="#000000" transform="translate(204.8125,164.6875)"/>
<path d="M0 0 C2.62195076 1.68073767 3.66412668 2.88508717 4.5625 5.8671875 C5.19438897 9.35574117 5.20702043 11.48244893 3.875 14.8125 C1.65883242 17.39802885 0.1806324 18.72774704 -3 20 C-7.01690657 20.20004515 -10.04260074 19.61371748 -13.4375 17.4375 C-15.61371748 14.04260074 -16.20004515 11.01690657 -16 7 C-14.72774704 3.8193676 -13.39802885 2.34116758 -10.8125 0.125 C-6.93874712 -1.42450115 -3.96564241 -1.19467052 0 0 Z " fill="#FDFCFB" transform="translate(200,179)"/>
<path d="M0 0 C0.66 0.33 1.32 0.66 2 1 C2 1.99 2 2.98 2 4 C-0.6666419 5.33332095 -2.16680303 4.67102033 -5 4 C-5 3.34 -5 2.68 -5 2 C-2.625 0.9375 -2.625 0.9375 0 0 Z " fill="#FAF4F0" transform="translate(258,158)"/>
</svg>
