<?xml version="1.0" encoding="UTF-8"?>
<svg version="1.1" xmlns="http://www.w3.org/2000/svg" width="414" height="382">
<path d="M0 0 C136.62 0 273.24 0 414 0 C414 126.06 414 252.12 414 382 C277.38 382 140.76 382 0 382 C0 255.94 0 129.88 0 0 Z " fill="#000000" transform="translate(0,0)"/>
<path d="M0 0 C8.55462709 5.2643859 13.45508863 11.45479948 17.66796875 20.51953125 C21.27591366 26.83132246 26.61823604 28.49261215 33.1484375 30.6875 C46.7310301 35.4918974 59.06623043 41.3400698 70.3359375 50.4375 C71.34914063 51.24832031 72.36234375 52.05914062 73.40625 52.89453125 C96.26609111 71.53174335 113.16894974 93.14254852 122.828125 121.16015625 C125.36414722 129.5587517 125.36414722 129.5587517 131.3359375 135.4375 C132.7519658 136.02238125 134.16871674 136.60551415 135.5859375 137.1875 C143.63110766 140.68079757 149.56839335 146.52108132 153.3359375 154.4375 C156.68366925 163.11355873 156.23361599 172.14461862 152.78515625 180.69921875 C148.30160143 189.17084121 141.06908392 195.57365726 132.3359375 199.4375 C129.89870946 200.08597675 127.87004894 200.32732124 125.3359375 200.4375 C125.2946875 201.5925 125.2534375 202.7475 125.2109375 203.9375 C122.33009722 228.8139451 103.50090794 251.68954902 86.73242188 268.98974609 C85.42201461 270.34826272 84.13585062 271.7300464 82.8515625 273.11328125 C69.4934496 287.14803059 52.57385509 297.13211174 34.24609375 303.11328125 C23.82441666 306.56351485 23.82441666 306.56351485 16.59765625 314.42578125 C16.07816406 315.52277344 15.55867187 316.61976563 15.0234375 317.75 C10.10959783 327.20702333 3.3502931 332.74317979 -6.6640625 336.4375 C-14.87299393 338.56866489 -23.52617795 337.25589663 -30.95703125 333.1796875 C-38.49732766 327.84168269 -43.74019392 321.20512957 -47.328125 312.734375 C-50.70427003 306.92977478 -55.92535291 305.46821805 -61.9765625 303.6875 C-76.14131496 299.21282438 -88.14885805 292.89972564 -99.6640625 283.4375 C-100.68757813 282.61636719 -101.71109375 281.79523438 -102.765625 280.94921875 C-126.77641559 261.40623556 -144.62604159 238.63611067 -153.7265625 208.75 C-155.67693643 202.85955616 -157.78279561 200.99267923 -163.21875 198.05859375 C-164.17007813 197.54425781 -165.12140625 197.02992188 -166.1015625 196.5 C-167.54208984 195.72462891 -167.54208984 195.72462891 -169.01171875 194.93359375 C-176.65228442 190.6238196 -181.08914146 184.9372744 -183.9765625 176.6875 C-186.09564492 166.194956 -184.98772212 157.09526893 -179.14453125 148.09765625 C-174.64219853 142.35938906 -169.33186893 139.25743509 -162.85620117 136.17529297 C-158.27815048 133.97307344 -155.72186185 132.06646468 -153.80786133 127.30957031 C-153.58122803 126.55256836 -153.35459473 125.79556641 -153.12109375 125.015625 C-152.85643311 124.16299072 -152.59177246 123.31035645 -152.3190918 122.43188477 C-152.04105713 121.52623779 -151.76302246 120.62059082 -151.4765625 119.6875 C-144.58617867 98.29549705 -133.46258581 81.32260452 -117.6640625 65.4375 C-116.94911621 64.71651123 -116.94911621 64.71651123 -116.21972656 63.98095703 C-108.16166574 55.96990618 -99.24280313 49.50901867 -89.6640625 43.4375 C-89.0354834 43.03789063 -88.4069043 42.63828125 -87.75927734 42.2265625 C-78.4039606 36.38653236 -68.64159677 32.23087714 -58.29272461 28.44287109 C-57.3466333 28.09305176 -56.40054199 27.74323242 -55.42578125 27.3828125 C-54.57975342 27.07875488 -53.73372559 26.77469727 -52.86206055 26.46142578 C-48.68383452 24.51502125 -47.20104926 21.78052224 -45.3515625 17.6875 C-40.83952855 8.47598856 -34.5402279 2.81789675 -25.3359375 -1.70703125 C-17.50743083 -4.21352681 -7.39539595 -3.53799674 0 0 Z " fill="#FCFCFC" transform="translate(209.6640625,22.5625)"/>
<path d="M0 0 C0.66 0 1.32 0 2 0 C13.98418035 34.54062959 26.37928885 70.41961932 30 107 C34.7309555 105.63089015 38.63858743 103.58631833 42.75 100.9375 C43.40959717 100.51919922 44.06919434 100.10089844 44.7487793 99.66992188 C56.91520631 91.91516719 68.99559419 84.00293721 81 76 C81.99 76 82.98 76 84 76 C82.31654141 81.13627961 79.27817937 85.28176841 76.2578125 89.703125 C75.09754207 91.42310007 73.93738955 93.14315468 72.77734375 94.86328125 C70.95405001 97.55485677 69.12849477 100.24486118 67.30029297 102.93310547 C65.53002862 105.53987362 63.76856359 108.1524252 62.0078125 110.765625 C61.46601349 111.55656555 60.92421448 112.3475061 60.36599731 113.16241455 C56.9565336 118.23226845 54.28746531 123.3342878 52 129 C53.04812866 129.05498657 53.04812866 129.05498657 54.11743164 129.11108398 C62.43810108 129.66252345 70.32543975 131.17309307 78.4375 133.0625 C79.10573792 133.21650269 79.77397583 133.37050537 80.46246338 133.5291748 C106.4797902 139.53488521 131.76813161 147.3296174 157 156 C157 156.99 157 157.98 157 159 C130.20413309 167.94075064 103.51290532 176.55185176 75.953125 182.859375 C74.9435247 183.09123253 74.9435247 183.09123253 73.91352844 183.32777405 C70.70564867 184.0624944 67.49639645 184.78310532 64.2800293 185.48022461 C48.55753915 188.50617215 48.55753915 188.50617215 36.17895508 197.64331055 C30.74245556 208.51068057 28.60238601 221.43899662 25.92053223 233.21585083 C12.10683328 293.62825083 12.10683328 293.62825083 1 315 C-1.6473904 312.3526096 -2.3773104 309.38798022 -3.50390625 305.90625 C-3.8626181 304.81765182 -3.8626181 304.81765182 -4.22857666 303.70706177 C-5.01496391 301.30735382 -5.789964 298.90420085 -6.5625 296.5 C-6.82944672 295.6734491 -7.09639343 294.84689819 -7.37142944 293.99530029 C-14.7267891 271.1512268 -20.73424631 248.0184294 -26.0625 224.625 C-26.29134384 223.6237912 -26.29134384 223.6237912 -26.52481079 222.60235596 C-29 211.70826549 -29 211.70826549 -29 207 C-35.07232948 209.88073559 -40.57496337 213.20943665 -46.13671875 216.97265625 C-47.40042046 217.81913979 -47.40042046 217.81913979 -48.68965149 218.682724 C-51.3585731 220.47160115 -54.02319587 222.26675467 -56.6875 224.0625 C-59.36331791 225.8605899 -62.0400202 227.65734886 -64.71748352 229.45298767 C-66.37697636 230.56649871 -68.03538529 231.68162732 -69.69255066 232.79859924 C-78.4326592 238.67547526 -78.4326592 238.67547526 -81 240 C-81.66 239.67 -82.32 239.34 -83 239 C-78.2204138 231.16961409 -73.41437891 223.41068186 -68 216 C-64.33422383 210.96582234 -60.87951378 205.83357197 -57.5625 200.5625 C-57.14935547 199.91216797 -56.73621094 199.26183594 -56.31054688 198.59179688 C-53.77815011 194.51903315 -51.78646947 190.451813 -50 186 C-50.59973633 185.96841797 -51.19947266 185.93683594 -51.81738281 185.90429688 C-60.64718221 185.2827104 -69.14006939 183.44381796 -77.75 181.5 C-78.53390106 181.32459686 -79.31780212 181.14919373 -80.12545776 180.96847534 C-105.57199205 175.24835036 -130.34974551 167.47929978 -155 159 C-155 158.01 -155 157.02 -155 156 C-136.54274195 149.80534191 -118.05788431 143.79871449 -99.25 138.75 C-98.49275635 138.54664032 -97.7355127 138.34328064 -96.95532227 138.13375854 C-88.56265582 135.89207314 -80.14631374 133.7713362 -71.69140625 131.77734375 C-70.93860382 131.59895966 -70.18580139 131.42057556 -69.41018677 131.23678589 C-65.85408897 130.39615877 -62.29587735 129.57029065 -58.72949219 128.77441406 C-48.82745869 126.48234672 -38.70917761 124.06751738 -33 115 C-29.13431772 106.4008703 -27.36835087 97.24416526 -25.42459106 88.07681274 C-19.01692458 58.03382675 -10.41138807 28.88741724 0 0 Z " fill="#000000" transform="translate(194,32)"/>
<path d="M0 0 C7.78426685 5.71128274 14.37553552 13.60917618 16.1875 23.3125 C17.01054892 35.41536685 16.23975853 46.5192126 8.1875 56.3125 C-0.12153288 64.87281412 -7.56535702 68.79649584 -19.546875 69.33984375 C-30.09002998 69.25156374 -39.17295587 66.3464555 -47.140625 59.234375 C-56.05666085 49.78998147 -58.32139037 40.00220035 -58.08984375 27.3671875 C-57.65258925 17.96512809 -52.79242449 9.94898142 -46 3.625 C-32.84740817 -6.9819289 -14.59181084 -9.1385573 0 0 Z " fill="#FBFBFB" transform="translate(215.8125,157.6875)"/>
</svg>
